<?xml version="1.0" encoding="utf-8" standalone="no"?>
<!DOCTYPE svg PUBLIC "-//W3C//DTD SVG 1.1//EN"
  "http://www.w3.org/Graphics/SVG/1.1/DTD/svg11.dtd">
<svg xmlns:xlink="http://www.w3.org/1999/xlink" width="720pt" height="576pt" viewBox="0 0 720 576" xmlns="http://www.w3.org/2000/svg" version="1.1">
 <metadata>
  <rdf:RDF xmlns:dc="http://purl.org/dc/elements/1.1/" xmlns:cc="http://creativecommons.org/ns#" xmlns:rdf="http://www.w3.org/1999/02/22-rdf-syntax-ns#">
   <cc:Work>
    <dc:type rdf:resource="http://purl.org/dc/dcmitype/StillImage"/>
    <dc:date>2024-07-29T14:35:53.679029</dc:date>
    <dc:format>image/svg+xml</dc:format>
    <dc:creator>
     <cc:Agent>
      <dc:title>Matplotlib v3.7.5, https://matplotlib.org/</dc:title>
     </cc:Agent>
    </dc:creator>
   </cc:Work>
  </rdf:RDF>
 </metadata>
 <defs>
  <style type="text/css">*{stroke-linejoin: round; stroke-linecap: butt}</style>
 </defs>
 <g id="figure_1">
  <g id="patch_1">
   <path d="M 0 576 
L 720 576 
L 720 0 
L 0 0 
z
" style="fill: #ffffff"/>
  </g>
  <g id="axes_1">
   <g id="patch_2">
    <path d="M 90 512.64 
L 648 512.64 
L 648 69.12 
L 90 69.12 
z
" style="fill: #ffffff"/>
   </g>
   <g id="matplotlib.axis_1">
    <g id="xtick_1">
     <g id="line2d_1">
      <defs>
       <path id="m0b98ed8eb4" d="M 0 0 
L 0 3.5 
" style="stroke: #000000; stroke-width: 0.8"/>
      </defs>
      <g>
       <use xlink:href="#m0b98ed8eb4" x="115.346572" y="512.64" style="stroke: #000000; stroke-width: 0.8"/>
      </g>
     </g>
     <g id="text_1">
      <!-- 0 -->
      <g transform="translate(112.165322 527.238438) scale(0.1 -0.1)">
       <defs>
        <path id="DejaVuSans-30" d="M 2034 4250 
Q 1547 4250 1301 3770 
Q 1056 3291 1056 2328 
Q 1056 1369 1301 889 
Q 1547 409 2034 409 
Q 2525 409 2770 889 
Q 3016 1369 3016 2328 
Q 3016 3291 2770 3770 
Q 2525 4250 2034 4250 
z
M 2034 4750 
Q 2819 4750 3233 4129 
Q 3647 3509 3647 2328 
Q 3647 1150 3233 529 
Q 2819 -91 2034 -91 
Q 1250 -91 836 529 
Q 422 1150 422 2328 
Q 422 3509 836 4129 
Q 1250 4750 2034 4750 
z
" transform="scale(0.015625)"/>
       </defs>
       <use xlink:href="#DejaVuSans-30"/>
      </g>
     </g>
    </g>
    <g id="xtick_2">
     <g id="line2d_2">
      <g>
       <use xlink:href="#m0b98ed8eb4" x="200.668456" y="512.64" style="stroke: #000000; stroke-width: 0.8"/>
      </g>
     </g>
     <g id="text_2">
      <!-- 5000 -->
      <g transform="translate(187.943456 527.238438) scale(0.1 -0.1)">
       <defs>
        <path id="DejaVuSans-35" d="M 691 4666 
L 3169 4666 
L 3169 4134 
L 1269 4134 
L 1269 2991 
Q 1406 3038 1543 3061 
Q 1681 3084 1819 3084 
Q 2600 3084 3056 2656 
Q 3513 2228 3513 1497 
Q 3513 744 3044 326 
Q 2575 -91 1722 -91 
Q 1428 -91 1123 -41 
Q 819 9 494 109 
L 494 744 
Q 775 591 1075 516 
Q 1375 441 1709 441 
Q 2250 441 2565 725 
Q 2881 1009 2881 1497 
Q 2881 1984 2565 2268 
Q 2250 2553 1709 2553 
Q 1456 2553 1204 2497 
Q 953 2441 691 2322 
L 691 4666 
z
" transform="scale(0.015625)"/>
       </defs>
       <use xlink:href="#DejaVuSans-35"/>
       <use xlink:href="#DejaVuSans-30" x="63.623047"/>
       <use xlink:href="#DejaVuSans-30" x="127.246094"/>
       <use xlink:href="#DejaVuSans-30" x="190.869141"/>
      </g>
     </g>
    </g>
    <g id="xtick_3">
     <g id="line2d_3">
      <g>
       <use xlink:href="#m0b98ed8eb4" x="285.990339" y="512.64" style="stroke: #000000; stroke-width: 0.8"/>
      </g>
     </g>
     <g id="text_3">
      <!-- 10000 -->
      <g transform="translate(270.084089 527.238438) scale(0.1 -0.1)">
       <defs>
        <path id="DejaVuSans-31" d="M 794 531 
L 1825 531 
L 1825 4091 
L 703 3866 
L 703 4441 
L 1819 4666 
L 2450 4666 
L 2450 531 
L 3481 531 
L 3481 0 
L 794 0 
L 794 531 
z
" transform="scale(0.015625)"/>
       </defs>
       <use xlink:href="#DejaVuSans-31"/>
       <use xlink:href="#DejaVuSans-30" x="63.623047"/>
       <use xlink:href="#DejaVuSans-30" x="127.246094"/>
       <use xlink:href="#DejaVuSans-30" x="190.869141"/>
       <use xlink:href="#DejaVuSans-30" x="254.492188"/>
      </g>
     </g>
    </g>
    <g id="xtick_4">
     <g id="line2d_4">
      <g>
       <use xlink:href="#m0b98ed8eb4" x="371.312223" y="512.64" style="stroke: #000000; stroke-width: 0.8"/>
      </g>
     </g>
     <g id="text_4">
      <!-- 15000 -->
      <g transform="translate(355.405973 527.238438) scale(0.1 -0.1)">
       <use xlink:href="#DejaVuSans-31"/>
       <use xlink:href="#DejaVuSans-35" x="63.623047"/>
       <use xlink:href="#DejaVuSans-30" x="127.246094"/>
       <use xlink:href="#DejaVuSans-30" x="190.869141"/>
       <use xlink:href="#DejaVuSans-30" x="254.492188"/>
      </g>
     </g>
    </g>
    <g id="xtick_5">
     <g id="line2d_5">
      <g>
       <use xlink:href="#m0b98ed8eb4" x="456.634107" y="512.64" style="stroke: #000000; stroke-width: 0.8"/>
      </g>
     </g>
     <g id="text_5">
      <!-- 20000 -->
      <g transform="translate(440.727857 527.238438) scale(0.1 -0.1)">
       <defs>
        <path id="DejaVuSans-32" d="M 1228 531 
L 3431 531 
L 3431 0 
L 469 0 
L 469 531 
Q 828 903 1448 1529 
Q 2069 2156 2228 2338 
Q 2531 2678 2651 2914 
Q 2772 3150 2772 3378 
Q 2772 3750 2511 3984 
Q 2250 4219 1831 4219 
Q 1534 4219 1204 4116 
Q 875 4013 500 3803 
L 500 4441 
Q 881 4594 1212 4672 
Q 1544 4750 1819 4750 
Q 2544 4750 2975 4387 
Q 3406 4025 3406 3419 
Q 3406 3131 3298 2873 
Q 3191 2616 2906 2266 
Q 2828 2175 2409 1742 
Q 1991 1309 1228 531 
z
" transform="scale(0.015625)"/>
       </defs>
       <use xlink:href="#DejaVuSans-32"/>
       <use xlink:href="#DejaVuSans-30" x="63.623047"/>
       <use xlink:href="#DejaVuSans-30" x="127.246094"/>
       <use xlink:href="#DejaVuSans-30" x="190.869141"/>
       <use xlink:href="#DejaVuSans-30" x="254.492188"/>
      </g>
     </g>
    </g>
    <g id="xtick_6">
     <g id="line2d_6">
      <g>
       <use xlink:href="#m0b98ed8eb4" x="541.95599" y="512.64" style="stroke: #000000; stroke-width: 0.8"/>
      </g>
     </g>
     <g id="text_6">
      <!-- 25000 -->
      <g transform="translate(526.04974 527.238438) scale(0.1 -0.1)">
       <use xlink:href="#DejaVuSans-32"/>
       <use xlink:href="#DejaVuSans-35" x="63.623047"/>
       <use xlink:href="#DejaVuSans-30" x="127.246094"/>
       <use xlink:href="#DejaVuSans-30" x="190.869141"/>
       <use xlink:href="#DejaVuSans-30" x="254.492188"/>
      </g>
     </g>
    </g>
    <g id="xtick_7">
     <g id="line2d_7">
      <g>
       <use xlink:href="#m0b98ed8eb4" x="627.277874" y="512.64" style="stroke: #000000; stroke-width: 0.8"/>
      </g>
     </g>
     <g id="text_7">
      <!-- 30000 -->
      <g transform="translate(611.371624 527.238438) scale(0.1 -0.1)">
       <defs>
        <path id="DejaVuSans-33" d="M 2597 2516 
Q 3050 2419 3304 2112 
Q 3559 1806 3559 1356 
Q 3559 666 3084 287 
Q 2609 -91 1734 -91 
Q 1441 -91 1130 -33 
Q 819 25 488 141 
L 488 750 
Q 750 597 1062 519 
Q 1375 441 1716 441 
Q 2309 441 2620 675 
Q 2931 909 2931 1356 
Q 2931 1769 2642 2001 
Q 2353 2234 1838 2234 
L 1294 2234 
L 1294 2753 
L 1863 2753 
Q 2328 2753 2575 2939 
Q 2822 3125 2822 3475 
Q 2822 3834 2567 4026 
Q 2313 4219 1838 4219 
Q 1578 4219 1281 4162 
Q 984 4106 628 3988 
L 628 4550 
Q 988 4650 1302 4700 
Q 1616 4750 1894 4750 
Q 2613 4750 3031 4423 
Q 3450 4097 3450 3541 
Q 3450 3153 3228 2886 
Q 3006 2619 2597 2516 
z
" transform="scale(0.015625)"/>
       </defs>
       <use xlink:href="#DejaVuSans-33"/>
       <use xlink:href="#DejaVuSans-30" x="63.623047"/>
       <use xlink:href="#DejaVuSans-30" x="127.246094"/>
       <use xlink:href="#DejaVuSans-30" x="190.869141"/>
       <use xlink:href="#DejaVuSans-30" x="254.492188"/>
      </g>
     </g>
    </g>
    <g id="text_8">
     <!-- Steps -->
     <g transform="translate(355.010156 540.916563) scale(0.1 -0.1)">
      <defs>
       <path id="DejaVuSans-53" d="M 3425 4513 
L 3425 3897 
Q 3066 4069 2747 4153 
Q 2428 4238 2131 4238 
Q 1616 4238 1336 4038 
Q 1056 3838 1056 3469 
Q 1056 3159 1242 3001 
Q 1428 2844 1947 2747 
L 2328 2669 
Q 3034 2534 3370 2195 
Q 3706 1856 3706 1288 
Q 3706 609 3251 259 
Q 2797 -91 1919 -91 
Q 1588 -91 1214 -16 
Q 841 59 441 206 
L 441 856 
Q 825 641 1194 531 
Q 1563 422 1919 422 
Q 2459 422 2753 634 
Q 3047 847 3047 1241 
Q 3047 1584 2836 1778 
Q 2625 1972 2144 2069 
L 1759 2144 
Q 1053 2284 737 2584 
Q 422 2884 422 3419 
Q 422 4038 858 4394 
Q 1294 4750 2059 4750 
Q 2388 4750 2728 4690 
Q 3069 4631 3425 4513 
z
" transform="scale(0.015625)"/>
       <path id="DejaVuSans-74" d="M 1172 4494 
L 1172 3500 
L 2356 3500 
L 2356 3053 
L 1172 3053 
L 1172 1153 
Q 1172 725 1289 603 
Q 1406 481 1766 481 
L 2356 481 
L 2356 0 
L 1766 0 
Q 1100 0 847 248 
Q 594 497 594 1153 
L 594 3053 
L 172 3053 
L 172 3500 
L 594 3500 
L 594 4494 
L 1172 4494 
z
" transform="scale(0.015625)"/>
       <path id="DejaVuSans-65" d="M 3597 1894 
L 3597 1613 
L 953 1613 
Q 991 1019 1311 708 
Q 1631 397 2203 397 
Q 2534 397 2845 478 
Q 3156 559 3463 722 
L 3463 178 
Q 3153 47 2828 -22 
Q 2503 -91 2169 -91 
Q 1331 -91 842 396 
Q 353 884 353 1716 
Q 353 2575 817 3079 
Q 1281 3584 2069 3584 
Q 2775 3584 3186 3129 
Q 3597 2675 3597 1894 
z
M 3022 2063 
Q 3016 2534 2758 2815 
Q 2500 3097 2075 3097 
Q 1594 3097 1305 2825 
Q 1016 2553 972 2059 
L 3022 2063 
z
" transform="scale(0.015625)"/>
       <path id="DejaVuSans-70" d="M 1159 525 
L 1159 -1331 
L 581 -1331 
L 581 3500 
L 1159 3500 
L 1159 2969 
Q 1341 3281 1617 3432 
Q 1894 3584 2278 3584 
Q 2916 3584 3314 3078 
Q 3713 2572 3713 1747 
Q 3713 922 3314 415 
Q 2916 -91 2278 -91 
Q 1894 -91 1617 61 
Q 1341 213 1159 525 
z
M 3116 1747 
Q 3116 2381 2855 2742 
Q 2594 3103 2138 3103 
Q 1681 3103 1420 2742 
Q 1159 2381 1159 1747 
Q 1159 1113 1420 752 
Q 1681 391 2138 391 
Q 2594 391 2855 752 
Q 3116 1113 3116 1747 
z
" transform="scale(0.015625)"/>
       <path id="DejaVuSans-73" d="M 2834 3397 
L 2834 2853 
Q 2591 2978 2328 3040 
Q 2066 3103 1784 3103 
Q 1356 3103 1142 2972 
Q 928 2841 928 2578 
Q 928 2378 1081 2264 
Q 1234 2150 1697 2047 
L 1894 2003 
Q 2506 1872 2764 1633 
Q 3022 1394 3022 966 
Q 3022 478 2636 193 
Q 2250 -91 1575 -91 
Q 1294 -91 989 -36 
Q 684 19 347 128 
L 347 722 
Q 666 556 975 473 
Q 1284 391 1588 391 
Q 1994 391 2212 530 
Q 2431 669 2431 922 
Q 2431 1156 2273 1281 
Q 2116 1406 1581 1522 
L 1381 1569 
Q 847 1681 609 1914 
Q 372 2147 372 2553 
Q 372 3047 722 3315 
Q 1072 3584 1716 3584 
Q 2034 3584 2315 3537 
Q 2597 3491 2834 3397 
z
" transform="scale(0.015625)"/>
      </defs>
      <use xlink:href="#DejaVuSans-53"/>
      <use xlink:href="#DejaVuSans-74" x="63.476562"/>
      <use xlink:href="#DejaVuSans-65" x="102.685547"/>
      <use xlink:href="#DejaVuSans-70" x="164.208984"/>
      <use xlink:href="#DejaVuSans-73" x="227.685547"/>
     </g>
    </g>
   </g>
   <g id="matplotlib.axis_2">
    <g id="ytick_1">
     <g id="line2d_8">
      <defs>
       <path id="m033815da6e" d="M 0 0 
L -3.5 0 
" style="stroke: #000000; stroke-width: 0.8"/>
      </defs>
      <g>
       <use xlink:href="#m033815da6e" x="90" y="457.692722" style="stroke: #000000; stroke-width: 0.8"/>
      </g>
     </g>
     <g id="text_9">
      <!-- 0.94 -->
      <g transform="translate(60.734375 461.491941) scale(0.1 -0.1)">
       <defs>
        <path id="DejaVuSans-2e" d="M 684 794 
L 1344 794 
L 1344 0 
L 684 0 
L 684 794 
z
" transform="scale(0.015625)"/>
        <path id="DejaVuSans-39" d="M 703 97 
L 703 672 
Q 941 559 1184 500 
Q 1428 441 1663 441 
Q 2288 441 2617 861 
Q 2947 1281 2994 2138 
Q 2813 1869 2534 1725 
Q 2256 1581 1919 1581 
Q 1219 1581 811 2004 
Q 403 2428 403 3163 
Q 403 3881 828 4315 
Q 1253 4750 1959 4750 
Q 2769 4750 3195 4129 
Q 3622 3509 3622 2328 
Q 3622 1225 3098 567 
Q 2575 -91 1691 -91 
Q 1453 -91 1209 -44 
Q 966 3 703 97 
z
M 1959 2075 
Q 2384 2075 2632 2365 
Q 2881 2656 2881 3163 
Q 2881 3666 2632 3958 
Q 2384 4250 1959 4250 
Q 1534 4250 1286 3958 
Q 1038 3666 1038 3163 
Q 1038 2656 1286 2365 
Q 1534 2075 1959 2075 
z
" transform="scale(0.015625)"/>
        <path id="DejaVuSans-34" d="M 2419 4116 
L 825 1625 
L 2419 1625 
L 2419 4116 
z
M 2253 4666 
L 3047 4666 
L 3047 1625 
L 3713 1625 
L 3713 1100 
L 3047 1100 
L 3047 0 
L 2419 0 
L 2419 1100 
L 313 1100 
L 313 1709 
L 2253 4666 
z
" transform="scale(0.015625)"/>
       </defs>
       <use xlink:href="#DejaVuSans-30"/>
       <use xlink:href="#DejaVuSans-2e" x="63.623047"/>
       <use xlink:href="#DejaVuSans-39" x="95.410156"/>
       <use xlink:href="#DejaVuSans-34" x="159.033203"/>
      </g>
     </g>
    </g>
    <g id="ytick_2">
     <g id="line2d_9">
      <g>
       <use xlink:href="#m033815da6e" x="90" y="369.288882" style="stroke: #000000; stroke-width: 0.8"/>
      </g>
     </g>
     <g id="text_10">
      <!-- 0.95 -->
      <g transform="translate(60.734375 373.0881) scale(0.1 -0.1)">
       <use xlink:href="#DejaVuSans-30"/>
       <use xlink:href="#DejaVuSans-2e" x="63.623047"/>
       <use xlink:href="#DejaVuSans-39" x="95.410156"/>
       <use xlink:href="#DejaVuSans-35" x="159.033203"/>
      </g>
     </g>
    </g>
    <g id="ytick_3">
     <g id="line2d_10">
      <g>
       <use xlink:href="#m033815da6e" x="90" y="280.885041" style="stroke: #000000; stroke-width: 0.8"/>
      </g>
     </g>
     <g id="text_11">
      <!-- 0.96 -->
      <g transform="translate(60.734375 284.68426) scale(0.1 -0.1)">
       <defs>
        <path id="DejaVuSans-36" d="M 2113 2584 
Q 1688 2584 1439 2293 
Q 1191 2003 1191 1497 
Q 1191 994 1439 701 
Q 1688 409 2113 409 
Q 2538 409 2786 701 
Q 3034 994 3034 1497 
Q 3034 2003 2786 2293 
Q 2538 2584 2113 2584 
z
M 3366 4563 
L 3366 3988 
Q 3128 4100 2886 4159 
Q 2644 4219 2406 4219 
Q 1781 4219 1451 3797 
Q 1122 3375 1075 2522 
Q 1259 2794 1537 2939 
Q 1816 3084 2150 3084 
Q 2853 3084 3261 2657 
Q 3669 2231 3669 1497 
Q 3669 778 3244 343 
Q 2819 -91 2113 -91 
Q 1303 -91 875 529 
Q 447 1150 447 2328 
Q 447 3434 972 4092 
Q 1497 4750 2381 4750 
Q 2619 4750 2861 4703 
Q 3103 4656 3366 4563 
z
" transform="scale(0.015625)"/>
       </defs>
       <use xlink:href="#DejaVuSans-30"/>
       <use xlink:href="#DejaVuSans-2e" x="63.623047"/>
       <use xlink:href="#DejaVuSans-39" x="95.410156"/>
       <use xlink:href="#DejaVuSans-36" x="159.033203"/>
      </g>
     </g>
    </g>
    <g id="ytick_4">
     <g id="line2d_11">
      <g>
       <use xlink:href="#m033815da6e" x="90" y="192.4812" style="stroke: #000000; stroke-width: 0.8"/>
      </g>
     </g>
     <g id="text_12">
      <!-- 0.97 -->
      <g transform="translate(60.734375 196.280419) scale(0.1 -0.1)">
       <defs>
        <path id="DejaVuSans-37" d="M 525 4666 
L 3525 4666 
L 3525 4397 
L 1831 0 
L 1172 0 
L 2766 4134 
L 525 4134 
L 525 4666 
z
" transform="scale(0.015625)"/>
       </defs>
       <use xlink:href="#DejaVuSans-30"/>
       <use xlink:href="#DejaVuSans-2e" x="63.623047"/>
       <use xlink:href="#DejaVuSans-39" x="95.410156"/>
       <use xlink:href="#DejaVuSans-37" x="159.033203"/>
      </g>
     </g>
    </g>
    <g id="ytick_5">
     <g id="line2d_12">
      <g>
       <use xlink:href="#m033815da6e" x="90" y="104.077359" style="stroke: #000000; stroke-width: 0.8"/>
      </g>
     </g>
     <g id="text_13">
      <!-- 0.98 -->
      <g transform="translate(60.734375 107.876578) scale(0.1 -0.1)">
       <defs>
        <path id="DejaVuSans-38" d="M 2034 2216 
Q 1584 2216 1326 1975 
Q 1069 1734 1069 1313 
Q 1069 891 1326 650 
Q 1584 409 2034 409 
Q 2484 409 2743 651 
Q 3003 894 3003 1313 
Q 3003 1734 2745 1975 
Q 2488 2216 2034 2216 
z
M 1403 2484 
Q 997 2584 770 2862 
Q 544 3141 544 3541 
Q 544 4100 942 4425 
Q 1341 4750 2034 4750 
Q 2731 4750 3128 4425 
Q 3525 4100 3525 3541 
Q 3525 3141 3298 2862 
Q 3072 2584 2669 2484 
Q 3125 2378 3379 2068 
Q 3634 1759 3634 1313 
Q 3634 634 3220 271 
Q 2806 -91 2034 -91 
Q 1263 -91 848 271 
Q 434 634 434 1313 
Q 434 1759 690 2068 
Q 947 2378 1403 2484 
z
M 1172 3481 
Q 1172 3119 1398 2916 
Q 1625 2713 2034 2713 
Q 2441 2713 2670 2916 
Q 2900 3119 2900 3481 
Q 2900 3844 2670 4047 
Q 2441 4250 2034 4250 
Q 1625 4250 1398 4047 
Q 1172 3844 1172 3481 
z
" transform="scale(0.015625)"/>
       </defs>
       <use xlink:href="#DejaVuSans-30"/>
       <use xlink:href="#DejaVuSans-2e" x="63.623047"/>
       <use xlink:href="#DejaVuSans-39" x="95.410156"/>
       <use xlink:href="#DejaVuSans-38" x="159.033203"/>
      </g>
     </g>
    </g>
   </g>
   <g id="line2d_13">
    <path d="M 115.363636 94.145653 
L 117.71852 92.255562 
L 118.093937 89.28 
L 119.015413 92.679739 
L 121.472683 98.473839 
L 121.609198 91.464643 
L 122.974348 96.804531 
L 123.75931 104.333805 
L 124.237112 97.168111 
L 124.714915 104.864421 
L 124.817301 97.213427 
L 125.909421 108.461231 
L 126.626125 98.391638 
L 129.390554 97.193931 
L 131.472408 92.328278 
L 132.410949 92.77564 
L 133.400683 94.292139 
L 134.253901 99.626757 
L 134.56106 104.848613 
L 135.311893 94.677323 
L 136.881815 106.151179 
L 136.950073 96.944694 
L 137.223103 110.157939 
L 137.427875 109.639969 
L 138.349352 103.831642 
L 139.714502 98.667221 
L 139.919274 103.371107 
L 140.431206 112.394748 
L 141.216167 104.529295 
L 142.24003 96.281819 
L 143.229764 109.694243 
L 143.33215 103.566071 
L 143.639309 105.919858 
L 143.741695 91.376119 
L 147.086313 98.577644 
L 147.837145 101.88517 
L 148.076047 106.817216 
L 149.697162 109.195769 
L 150.03845 115.588459 
L 150.58451 103.716772 
L 151.744888 111.814601 
L 152.154433 100.622651 
L 152.563978 113.324776 
L 153.144166 116.202857 
L 154.40693 129.756498 
L 154.475188 114.073541 
L 156.113368 121.338297 
L 158.53651 108.753149 
L 158.673025 107.040634 
L 158.741282 121.172314 
L 158.980183 97.996969 
L 159.594501 108.009127 
L 159.62863 113.765815 
L 160.925522 107.79256 
L 164.133625 101.07739 
L 167.017505 101.47364 
L 167.97311 122.761002 
L 171.078826 103.275206 
L 172.785264 119.328593 
L 174.730603 112.447968 
L 175.208406 114.846544 
L 175.413178 125.176967 
L 176.334654 110.762853 
L 176.573556 115.68436 
L 176.914843 110.596343 
L 177.426775 128.609902 
L 177.938706 117.62767 
L 178.996697 137.925989 
L 179.099083 113.731038 
L 179.74753 110.410865 
L 179.986431 124.674277 
L 180.088817 110.282821 
L 180.29359 121.987472 
L 180.942036 131.917429 
L 185.90777 159.735537 
L 186.078414 114.827575 
L 187.27292 113.315819 
L 187.477692 117.256713 
L 187.716594 116.360935 
L 187.784851 130.458893 
L 188.501555 116.139625 
L 189.661933 119.495103 
L 190.890568 122.465922 
L 191.470757 113.85592 
L 194.917761 124.591023 
L 195.429692 118.519759 
L 196.487683 127.881161 
L 198.22825 130.516328 
L 201.692318 122.705148 
L 201.965348 116.230257 
L 202.033606 116.501098 
L 202.682052 137.674117 
L 203.535271 130.787169 
L 205.002807 127.244105 
L 207.084661 125.955239 
L 207.630721 118.866478 
L 208.313296 128.619387 
L 208.347425 135.451008 
L 210.019734 121.260311 
L 210.12212 133.858105 
L 210.326893 122.398476 
L 211.384884 138.190506 
L 212.545262 128.656272 
L 212.784163 113.151944 
L 213.432609 111.086913 
L 213.569124 132.459111 
L 214.388215 144.567915 
L 216.197039 129.656381 
L 216.947871 115.830319 
L 218.671373 132.118716 
L 219.115047 130.0305 
L 220.41194 120.952585 
L 221.162772 138.710057 
L 227.988523 134.367117 
L 229.694961 144.079453 
L 230.206892 135.410435 
L 230.275149 149.468345 
L 232.73242 128.724773 
L 234.49005 125.687033 
L 239.097432 138.596241 
L 240.599097 134.710674 
L 241.008642 144.660128 
L 242.100762 142.775833 
L 242.851595 133.87602 
L 246.059698 136.940633 
L 246.742273 140.716072 
L 247.049432 149.314482 
L 248.858256 132.059173 
L 248.892384 124.407125 
L 249.165414 120.350307 
L 250.66708 149.941 
L 250.837723 162.208936 
L 251.144882 136.61183 
L 251.469105 137.601401 
L 252.731869 137.705733 
L 252.97077 148.681642 
L 254.677208 142.772672 
L 254.813723 134.927769 
L 254.984367 144.660128 
L 256.008229 147.717891 
L 256.144744 125.064204 
L 256.213002 145.594371 
L 257.714667 133.064551 
L 257.885311 143.496671 
L 258.021826 144.145319 
L 258.909173 149.578473 
L 259.079817 153.083598 
L 260.137809 165.979633 
L 261.229929 133.62731 
L 261.673603 150.874716 
L 262.049019 131.203969 
L 262.799851 161.577677 
L 264.028486 157.154643 
L 264.881705 141.878475 
L 265.257122 153.7607 
L 266.212727 149.493638 
L 266.38337 160.624464 
L 266.519886 157.444454 
L 267.987422 160.875809 
L 268.823576 155.171287 
L 269.198993 146.883237 
L 269.506151 172.730107 
L 270.325242 156.264662 
L 270.734787 153.325985 
L 270.837173 166.641454 
L 271.417362 151.021202 
L 271.929293 165.270388 
L 272.407095 164.989008 
L 273.908761 183.68125 
L 274.011147 169.109585 
L 276.809705 153.820243 
L 276.94622 136.126003 
L 277.21925 234.919198 
L 277.560537 144.123715 
L 281.212314 148.739077 
L 281.655988 150.925301 
L 281.86076 173.467279 
L 282.850494 149.36981 
L 283.021138 170.510159 
L 283.260039 170.78785 
L 283.703713 161.718893 
L 283.908485 185.269411 
L 284.454545 179.670802 
L 285.734374 151.968092 
L 286.10979 167.217913 
L 290.341755 159.922596 
L 291.126717 165.169745 
L 292.116451 175.618199 
L 294.198305 200.7084 
L 295.085652 161.269951 
L 295.324553 202.800304 
L 296.484931 165.022732 
L 299.761291 160.315157 
L 302.303884 164.63544 
L 303.737291 170.755708 
L 304.215094 189.107554 
L 304.795283 172.048262 
L 304.965926 177.249568 
L 305.443729 180.263596 
L 305.580244 167.981432 
L 306.467591 206.985166 
L 306.706493 162.603078 
L 307.32081 163.06941 
L 310.733686 172.66951 
L 311.143231 185.325266 
L 311.586904 165.615526 
L 312.747282 179.868927 
L 314.931522 198.407833 
L 315.682355 184.824684 
L 315.81887 170.151848 
L 315.921256 172.4208 
L 320.0679 176.398579 
L 320.648089 185.384282 
L 321.398921 194.963832 
L 321.43305 191.925565 
L 322.52517 175.599229 
L 323.651419 190.952856 
L 325.5285 208.935853 
L 327.405582 210.332212 
L 327.746869 198.26767 
L 328.463573 168.829259 
L 329.658079 207.869878 
L 329.760466 196.067219 
L 334.436105 177.463501 
L 335.255195 186.72584 
L 335.732998 177.189498 
L 335.801255 184.95062 
L 336.808053 197.560006 
L 337.763658 204.035423 
L 339.470096 259.462448 
L 340.391572 195.269977 
L 342.132139 218.707205 
L 344.00922 230.236389 
L 344.111607 185.011217 
L 344.384637 212.577452 
L 344.418765 183.880429 
L 344.760053 248.92705 
L 345.442628 220.920303 
L 346.568877 201.502481 
L 346.807778 174.822011 
L 347.422096 211.236421 
L 348.718988 217.348258 
L 348.821375 185.250442 
L 350.766713 201.880288 
L 350.834971 207.38247 
L 351.892962 178.209631 
L 352.575537 202.3893 
L 353.787108 193.045814 
L 353.991881 215.178369 
L 354.094267 195.628815 
L 355.186387 196.334898 
L 355.322902 210.296381 
L 357.02934 207.779246 
L 359.520739 207.794 
L 361.841494 213.605489 
L 366.175846 215.209458 
L 367.677511 213.62762 
L 369.179176 223.494873 
L 370.220103 218.017984 
L 370.459004 201.303302 
L 370.493133 186.996681 
L 370.732034 222.199684 
L 371.039193 216.645863 
L 372.609116 202.660668 
L 374.281425 204.198244 
L 375.23703 234.3733 
L 378.445133 223.406349 
L 378.752291 213.346767 
L 379.298351 206.072527 
L 379.87854 220.631546 
L 380.936532 214.733642 
L 383.291416 207.121113 
L 383.632703 229.882293 
L 384.008119 270.499481 
L 385.407398 210.578815 
L 385.578042 234.010247 
L 385.851072 199.363153 
L 386.772548 210.554576 
L 387.608703 271.575994 
L 387.847604 261.801481 
L 389.04211 203.902111 
L 389.451656 236.758176 
L 390.304874 220.021364 
L 390.919192 256.412589 
L 391.601767 231.142178 
L 391.80654 219.362177 
L 392.045441 195.634084 
L 392.830402 199.381596 
L 393.922522 241.575351 
L 395.970247 240.899303 
L 396.140891 224.415416 
L 396.618694 270.609609 
L 397.506041 236.116905 
L 399.041835 241.61329 
L 399.212479 229.706826 
L 399.656153 256.517447 
L 401.021303 247.366817 
L 401.328462 223.705644 
L 401.703878 261.140713 
L 402.727741 210.283208 
L 404.041698 255.83613 
L 404.314728 229.440728 
L 405.952908 237.53961 
L 406.055294 232.122791 
L 406.601354 285.326179 
L 407.420444 229.804308 
L 407.727603 240.542046 
L 408.580822 251.01105 
L 408.853852 284.718105 
L 410.253131 263.358553 
L 412.164341 260.565835 
L 412.710401 235.880314 
L 413.768392 276.47379 
L 416.56695 247.976999 
L 416.83998 261.016358 
L 420.218727 313.357693 
L 420.321113 250.140565 
L 420.491757 283.613137 
L 421.464426 241.044735 
L 424.706658 264.073067 
L 427.402829 316.610419 
L 428.494949 259.662153 
L 428.529078 295.803615 
L 428.938623 251.072174 
L 429.894228 267.794759 
L 431.020477 274.062041 
L 431.464151 242.638165 
L 432.078469 313.655407 
L 432.624529 247.987538 
L 433.716649 273.604667 
L 437.607327 232.978522 
L 437.812099 310.815265 
L 438.75064 271.413701 
L 439.945146 266.023228 
L 440.184048 337.795557 
L 442.880219 240.633731 
L 449.43294 326.667366 
L 449.501197 256.34198 
L 451.958468 266.162864 
L 454.757025 326.158353 
L 455.763824 287.544546 
L 456.241626 320.577659 
L 457.606776 321.506633 
L 458.801283 294.084249 
L 459.006055 284.170626 
L 459.859274 256.492682 
L 461.224424 293.810246 
L 461.668098 286.366335 
L 462.282415 291.714654 
L 462.760218 259.785982 
L 464.159497 326.894999 
L 466.309608 287.072419 
L 466.787411 307.061957 
L 469.995514 288.283826 
L 472.401591 255.945204 
L 476.667685 265.778733 
L 476.770071 274.909341 
L 477.418518 320.847447 
L 478.135221 382.536483 
L 478.408251 297.302198 
L 478.476509 315.909605 
L 479.227342 320.477543 
L 480.35359 335.87912 
L 482.162414 332.697529 
L 483.322792 309.530615 
L 483.561693 325.337927 
L 483.732337 317.727506 
L 485.814191 333.857298 
L 486.803925 333.750331 
L 487.75953 345.3301 
L 491.018826 348.473752 
L 491.837916 305.082289 
L 494.602345 310.752034 
L 496.445298 313.464659 
L 497.673933 345.05399 
L 498.117607 340.027097 
L 499.175598 385.301274 
L 500.131203 334.188208 
L 501.735254 328.865709 
L 502.861503 365.080413 
L 504.806842 332.696475 
L 505.045744 381.31401 
L 505.14813 279.421952 
L 505.950156 385.88511 
L 508.543941 341.45718 
L 508.748713 301.825874 
L 509.294773 319.162858 
L 514.004541 340.797466 
L 514.106928 350.299031 
L 516.120524 316.825405 
L 517.553932 330.870143 
L 517.724575 392.357366 
L 518.646052 343.640769 
L 520.284232 364.910743 
L 522.570858 374.323784 
L 522.963339 319.905826 
L 523.338755 367.424716 
L 525.591253 308.433551 
L 526.239699 342.854592 
L 530.301021 437.82756 
L 530.710566 376.844607 
L 531.051854 355.77065 
L 531.97333 330.508671 
L 532.24636 373.018583 
L 532.51939 291.80107 
L 533.031321 390.358201 
L 533.236094 348.438975 
L 534.806017 357.962671 
L 536.683098 372.425789 
L 537.365673 308.482555 
L 538.287149 342.544759 
L 539.10624 364.618825 
L 539.242755 302.021892 
L 539.413398 368.051233 
L 540.693227 366.838245 
L 541.171029 362.553267 
L 541.239287 331.148361 
L 541.580574 384.531432 
L 541.648832 317.313868 
L 541.921862 344.518104 
L 543.252883 417.660973 
L 543.730686 368.630327 
L 544.515647 397.347374 
L 544.788677 412.919148 
L 546.017312 318.208064 
L 547.075303 390.443564 
L 547.860265 491.257 
L 548.099166 363.48593 
L 548.133295 391.239752 
L 548.440454 399.592614 
L 548.747612 316.547187 
L 549.396059 350.624672 
L 554.139955 327.294937 
L 556.153552 410.080061 
L 556.358324 349.875907 
L 558.662015 393.80431 
L 558.832659 350.38492 
L 559.242204 364.500793 
L 559.993037 420.236597 
L 560.402582 461.872863 
L 562.723337 320.321045 
L 563.678942 411.731453 
L 564.395646 328.625957 
L 564.429775 341.887153 
L 564.805191 426.585025 
L 567.194204 352.111663 
L 567.706135 321.972438 
L 569.992761 390.39614 
L 572.620675 369.629909 
L 576.903834 328.356697 
L 578.6444 305.4817 
L 579.634134 442.705859 
L 581.647731 347.305553 
L 582.296177 359.159851 
L 582.876366 384.432369 
L 583.763713 353.870548 
L 585.094735 303.339738 
L 585.23125 454.607053 
L 587.893293 414.591091 
L 589.975147 360.784897 
L 591.425619 346.416098 
L 595.725842 325.971821 
L 595.794099 295.468489 
L 595.828228 383.092392 
L 597.534665 459.54068 
L 598.592657 340.922875 
L 598.729172 309.794079 
L 598.797429 437.579377 
L 598.933944 401.755653 
L 601.834888 325.737338 
L 602.380948 399.899813 
L 604.838219 329.512777 
L 605.042991 373.88538 
L 605.589051 317.773876 
L 607.227231 399.26908 
L 608.50706 393.783233 
L 608.984862 376.857253 
L 610.315884 418.152597 
L 610.657171 350.09669 
L 613.4216 358.550195 
L 616.117772 329.486957 
L 616.527317 390.205392 
L 617.687694 353.620784 
L 617.858338 492.48 
L 618.063111 418.503531 
L 619.257617 451.178333 
L 619.291746 357.724499 
L 622.636364 364.586155 
L 622.636364 364.586155 
" clip-path="url(#pb1907e9921)" style="fill: none; stroke: #1f77b4; stroke-width: 1.5; stroke-linecap: square"/>
   </g>
   <g id="patch_3">
    <path d="M 90 512.64 
L 90 69.12 
" style="fill: none; stroke: #000000; stroke-width: 0.8; stroke-linejoin: miter; stroke-linecap: square"/>
   </g>
   <g id="patch_4">
    <path d="M 648 512.64 
L 648 69.12 
" style="fill: none; stroke: #000000; stroke-width: 0.8; stroke-linejoin: miter; stroke-linecap: square"/>
   </g>
   <g id="patch_5">
    <path d="M 90 512.64 
L 648 512.64 
" style="fill: none; stroke: #000000; stroke-width: 0.8; stroke-linejoin: miter; stroke-linecap: square"/>
   </g>
   <g id="patch_6">
    <path d="M 90 69.12 
L 648 69.12 
" style="fill: none; stroke: #000000; stroke-width: 0.8; stroke-linejoin: miter; stroke-linecap: square"/>
   </g>
   <g id="text_14">
    <!-- fastAPe2Base_1024_16 loss -->
    <g transform="translate(285.706875 63.12) scale(0.12 -0.12)">
     <defs>
      <path id="DejaVuSans-66" d="M 2375 4863 
L 2375 4384 
L 1825 4384 
Q 1516 4384 1395 4259 
Q 1275 4134 1275 3809 
L 1275 3500 
L 2222 3500 
L 2222 3053 
L 1275 3053 
L 1275 0 
L 697 0 
L 697 3053 
L 147 3053 
L 147 3500 
L 697 3500 
L 697 3744 
Q 697 4328 969 4595 
Q 1241 4863 1831 4863 
L 2375 4863 
z
" transform="scale(0.015625)"/>
      <path id="DejaVuSans-61" d="M 2194 1759 
Q 1497 1759 1228 1600 
Q 959 1441 959 1056 
Q 959 750 1161 570 
Q 1363 391 1709 391 
Q 2188 391 2477 730 
Q 2766 1069 2766 1631 
L 2766 1759 
L 2194 1759 
z
M 3341 1997 
L 3341 0 
L 2766 0 
L 2766 531 
Q 2569 213 2275 61 
Q 1981 -91 1556 -91 
Q 1019 -91 701 211 
Q 384 513 384 1019 
Q 384 1609 779 1909 
Q 1175 2209 1959 2209 
L 2766 2209 
L 2766 2266 
Q 2766 2663 2505 2880 
Q 2244 3097 1772 3097 
Q 1472 3097 1187 3025 
Q 903 2953 641 2809 
L 641 3341 
Q 956 3463 1253 3523 
Q 1550 3584 1831 3584 
Q 2591 3584 2966 3190 
Q 3341 2797 3341 1997 
z
" transform="scale(0.015625)"/>
      <path id="DejaVuSans-41" d="M 2188 4044 
L 1331 1722 
L 3047 1722 
L 2188 4044 
z
M 1831 4666 
L 2547 4666 
L 4325 0 
L 3669 0 
L 3244 1197 
L 1141 1197 
L 716 0 
L 50 0 
L 1831 4666 
z
" transform="scale(0.015625)"/>
      <path id="DejaVuSans-50" d="M 1259 4147 
L 1259 2394 
L 2053 2394 
Q 2494 2394 2734 2622 
Q 2975 2850 2975 3272 
Q 2975 3691 2734 3919 
Q 2494 4147 2053 4147 
L 1259 4147 
z
M 628 4666 
L 2053 4666 
Q 2838 4666 3239 4311 
Q 3641 3956 3641 3272 
Q 3641 2581 3239 2228 
Q 2838 1875 2053 1875 
L 1259 1875 
L 1259 0 
L 628 0 
L 628 4666 
z
" transform="scale(0.015625)"/>
      <path id="DejaVuSans-42" d="M 1259 2228 
L 1259 519 
L 2272 519 
Q 2781 519 3026 730 
Q 3272 941 3272 1375 
Q 3272 1813 3026 2020 
Q 2781 2228 2272 2228 
L 1259 2228 
z
M 1259 4147 
L 1259 2741 
L 2194 2741 
Q 2656 2741 2882 2914 
Q 3109 3088 3109 3444 
Q 3109 3797 2882 3972 
Q 2656 4147 2194 4147 
L 1259 4147 
z
M 628 4666 
L 2241 4666 
Q 2963 4666 3353 4366 
Q 3744 4066 3744 3513 
Q 3744 3084 3544 2831 
Q 3344 2578 2956 2516 
Q 3422 2416 3680 2098 
Q 3938 1781 3938 1306 
Q 3938 681 3513 340 
Q 3088 0 2303 0 
L 628 0 
L 628 4666 
z
" transform="scale(0.015625)"/>
      <path id="DejaVuSans-5f" d="M 3263 -1063 
L 3263 -1509 
L -63 -1509 
L -63 -1063 
L 3263 -1063 
z
" transform="scale(0.015625)"/>
      <path id="DejaVuSans-20" transform="scale(0.015625)"/>
      <path id="DejaVuSans-6c" d="M 603 4863 
L 1178 4863 
L 1178 0 
L 603 0 
L 603 4863 
z
" transform="scale(0.015625)"/>
      <path id="DejaVuSans-6f" d="M 1959 3097 
Q 1497 3097 1228 2736 
Q 959 2375 959 1747 
Q 959 1119 1226 758 
Q 1494 397 1959 397 
Q 2419 397 2687 759 
Q 2956 1122 2956 1747 
Q 2956 2369 2687 2733 
Q 2419 3097 1959 3097 
z
M 1959 3584 
Q 2709 3584 3137 3096 
Q 3566 2609 3566 1747 
Q 3566 888 3137 398 
Q 2709 -91 1959 -91 
Q 1206 -91 779 398 
Q 353 888 353 1747 
Q 353 2609 779 3096 
Q 1206 3584 1959 3584 
z
" transform="scale(0.015625)"/>
     </defs>
     <use xlink:href="#DejaVuSans-66"/>
     <use xlink:href="#DejaVuSans-61" x="35.205078"/>
     <use xlink:href="#DejaVuSans-73" x="96.484375"/>
     <use xlink:href="#DejaVuSans-74" x="148.583984"/>
     <use xlink:href="#DejaVuSans-41" x="187.792969"/>
     <use xlink:href="#DejaVuSans-50" x="256.201172"/>
     <use xlink:href="#DejaVuSans-65" x="312.878906"/>
     <use xlink:href="#DejaVuSans-32" x="374.402344"/>
     <use xlink:href="#DejaVuSans-42" x="438.025391"/>
     <use xlink:href="#DejaVuSans-61" x="506.628906"/>
     <use xlink:href="#DejaVuSans-73" x="567.908203"/>
     <use xlink:href="#DejaVuSans-65" x="620.007812"/>
     <use xlink:href="#DejaVuSans-5f" x="681.53125"/>
     <use xlink:href="#DejaVuSans-31" x="731.53125"/>
     <use xlink:href="#DejaVuSans-30" x="795.154297"/>
     <use xlink:href="#DejaVuSans-32" x="858.777344"/>
     <use xlink:href="#DejaVuSans-34" x="922.400391"/>
     <use xlink:href="#DejaVuSans-5f" x="986.023438"/>
     <use xlink:href="#DejaVuSans-31" x="1036.023438"/>
     <use xlink:href="#DejaVuSans-36" x="1099.646484"/>
     <use xlink:href="#DejaVuSans-20" x="1163.269531"/>
     <use xlink:href="#DejaVuSans-6c" x="1195.056641"/>
     <use xlink:href="#DejaVuSans-6f" x="1222.839844"/>
     <use xlink:href="#DejaVuSans-73" x="1284.021484"/>
     <use xlink:href="#DejaVuSans-73" x="1336.121094"/>
    </g>
   </g>
   <g id="legend_1">
    <g id="patch_7">
     <path d="M 589.684375 91.798125 
L 641 91.798125 
Q 643 91.798125 643 89.798125 
L 643 76.12 
Q 643 74.12 641 74.12 
L 589.684375 74.12 
Q 587.684375 74.12 587.684375 76.12 
L 587.684375 89.798125 
Q 587.684375 91.798125 589.684375 91.798125 
z
" style="fill: #ffffff; opacity: 0.8; stroke: #cccccc; stroke-linejoin: miter"/>
    </g>
    <g id="line2d_14">
     <path d="M 591.684375 82.218438 
L 601.684375 82.218438 
L 611.684375 82.218438 
" style="fill: none; stroke: #1f77b4; stroke-width: 1.5; stroke-linecap: square"/>
    </g>
    <g id="text_15">
     <!-- loss -->
     <g transform="translate(619.684375 85.718438) scale(0.1 -0.1)">
      <use xlink:href="#DejaVuSans-6c"/>
      <use xlink:href="#DejaVuSans-6f" x="27.783203"/>
      <use xlink:href="#DejaVuSans-73" x="88.964844"/>
      <use xlink:href="#DejaVuSans-73" x="141.064453"/>
     </g>
    </g>
   </g>
  </g>
 </g>
 <defs>
  <clipPath id="pb1907e9921">
   <rect x="90" y="69.12" width="558" height="443.52"/>
  </clipPath>
 </defs>
</svg>
